<svg width="100%" height="100%" viewBox="0 0 134 39" fill="none" xmlns="http://www.w3.org/2000/svg">
<g>
<path d="M124.75 25.8555C127.997 27.9428 131.881 27.276 133.505 32.2623C133.563 32.4362 133.592 32.6102 133.563 32.7841C133.563 33.3059 133.331 33.7988 132.954 33.9727C132.403 34.2336 131.881 34.4655 131.417 34.3206C121.996 31.6825 64.9433 31.5375 35.1127 36.1759C31.0831 36.4079 27.1114 37.4805 23.1108 38.1473C22.531 38.2342 22.2701 37.1616 22.7629 36.8427C23.9805 36.031 25.9808 36.2919 25.9808 33.9437C25.9808 33.045 25.2561 32.4072 24.6763 32.8421C23.5747 33.6248 22.473 35.6541 21.7193 33.2479C21.4874 32.5232 20.9656 32.0304 20.4148 32.0304L14.1819 31.9144C13.3122 31.8854 12.5295 31.1317 12.2396 30.0011C11.6018 27.5369 12.1236 26.2904 14.066 25.1308C15.6314 24.2031 16.5011 22.6666 16.791 20.5503C17.1679 17.9123 18.7043 17.4774 20.1538 16.6657C20.6757 16.3758 20.9656 15.4191 21.5744 14.4624C18.5304 13.7957 7.25331 17.1585 2.67289 19.6806C2.0641 20.0285 1.33936 19.6517 1.02047 18.8399C-0.0521626 16.0859 0.585617 15.1292 3.25269 14.2305C7.31129 12.926 11.3409 11.4185 15.3995 10.085C16.4721 9.73708 16.791 9.0993 16.5301 8.02667C16.4141 7.56284 16.6461 7.07001 16.9939 6.95405C20.8786 6.08435 24.7343 5.0697 28.6189 4.43192C49.7236 0.924132 86.3669 -0.0905168 113.241 0.431303C113.849 0.431303 114.458 0.576252 115.096 0.808172C115.821 1.06908 116.053 2.28666 115.502 2.89545L115.067 3.35929C114.98 3.44626 115.038 3.6202 115.125 3.64919C118.14 4.22899 120.778 4.72182 123.387 5.21465L123.62 5.25661C124.989 5.50329 126.335 5.7458 127.707 5.91041C128.808 6.05536 129.794 6.40324 130.345 7.59183C130.664 8.31657 130.49 9.24425 129.968 9.62112C127.243 11.5345 124.199 9.65011 121.3 9.85304C120.749 9.88203 120.198 10.056 119.647 10.2009C119.415 10.2589 119.271 10.5488 119.329 10.8387L119.357 11.0996L121.88 11.3605C122.343 11.4185 122.749 11.9983 122.72 12.6361C122.691 14.4914 125.069 15.796 122.604 18.1152L124.431 18.2601C126.228 18.4051 127.649 20.6083 127.475 23.0145L127.446 23.5073C127.388 24.1451 127.098 24.6959 126.634 24.9278L124.75 25.8555Z" fill="white">
</path>
<path fill-rule="evenodd" clip-rule="evenodd" d="M127.926 27.2742C130.225 28.0857 132.394 28.8512 133.505 32.2623C133.563 32.4362 133.592 32.6102 133.563 32.7841C133.563 33.3059 133.331 33.7988 132.954 33.9727C132.403 34.2336 131.881 34.4655 131.417 34.3206C121.996 31.6825 64.9433 31.5375 35.1127 36.1759C32.3955 36.3323 29.7046 36.871 27.0135 37.4097C25.7136 37.6699 24.4138 37.9301 23.1108 38.1473C22.531 38.2342 22.2701 37.1616 22.7629 36.8427C23.1151 36.6079 23.5328 36.4629 23.9486 36.3185C24.9703 35.9636 25.9808 35.6127 25.9808 33.9437C25.9808 33.045 25.2561 32.4072 24.6763 32.8421C24.4193 33.0247 24.1622 33.2752 23.9097 33.5213C23.0796 34.3303 22.2972 35.0927 21.7193 33.2479C21.4874 32.5232 20.9656 32.0304 20.4148 32.0304L14.1819 31.9144C13.3122 31.8854 12.5295 31.1317 12.2396 30.0011C11.6018 27.5369 12.1236 26.2904 14.066 25.1308C15.6314 24.2031 16.5011 22.6666 16.791 20.5503C17.1186 18.2571 18.3225 17.6287 19.5838 16.9704C19.7735 16.8714 19.9644 16.7718 20.1538 16.6657C20.4899 16.479 20.7298 16.0156 21.0207 15.4538C21.1814 15.1434 21.3577 14.8029 21.5744 14.4624C18.5304 13.7957 7.25331 17.1585 2.67289 19.6806C2.0641 20.0285 1.33936 19.6517 1.02047 18.8399C-0.0521626 16.0859 0.585617 15.1292 3.25269 14.2305C5.43013 13.5306 7.59922 12.7723 9.76891 12.0138C11.6434 11.3585 13.5183 10.7031 15.3995 10.085C16.4721 9.73708 16.791 9.0993 16.5301 8.02667C16.4141 7.56284 16.6461 7.07001 16.9939 6.95405C18.095 6.70755 19.1937 6.4494 20.2914 6.19149C23.0666 5.53945 25.8353 4.88893 28.6189 4.43192C49.7236 0.924132 86.3669 -0.0905168 113.241 0.431303C113.849 0.431303 114.458 0.576252 115.096 0.808172C115.821 1.06908 116.053 2.28666 115.502 2.89545L115.067 3.35929C114.98 3.44626 115.038 3.6202 115.125 3.64919C117.372 4.08136 119.41 4.46522 121.383 4.83677C122.057 4.96369 122.723 5.08917 123.387 5.21465L123.62 5.25661C124.989 5.50329 126.335 5.7458 127.707 5.91041C128.808 6.05536 129.794 6.40324 130.345 7.59183C130.664 8.31657 130.49 9.24425 129.968 9.62112C128.211 10.8547 126.322 10.5097 124.424 10.1633C123.378 9.97233 122.33 9.78094 121.3 9.85304C120.841 9.8772 120.382 10.002 119.923 10.1268C119.831 10.1518 119.739 10.1768 119.647 10.2009C119.415 10.2589 119.271 10.5488 119.329 10.8387L119.357 11.0996L121.88 11.3605C122.343 11.4185 122.749 11.9983 122.72 12.6361C122.711 13.2554 122.969 13.8134 123.226 14.3682C123.739 15.4754 124.246 16.5701 122.604 18.1152L124.431 18.2601C126.228 18.4051 127.649 20.6083 127.475 23.0145L127.446 23.5073C127.388 24.1451 127.098 24.6959 126.634 24.9278L124.75 25.8555C125.775 26.5149 126.865 26.8994 127.926 27.2742ZM38.3595 24.435C38.4175 23.0435 38.6205 20.9562 38.9393 18.8689C39.1713 17.5064 39.809 14.4335 40.3598 12.4332C40.5628 11.6794 40.7367 11.0996 40.8817 10.7807C40.8817 10.7662 40.8889 10.7445 40.8962 10.7227C40.9034 10.701 40.9107 10.6793 40.9107 10.6648C41.139 10.0004 41.4715 10.1389 41.7376 10.2498C41.8431 10.2937 41.9382 10.3333 42.0123 10.3169C42.4471 10.1719 42.708 9.79506 42.795 9.24425C42.853 8.92536 42.882 8.25859 42.708 7.96869C42.5921 7.79475 42.2442 7.50485 41.5774 7.3889C40.1279 7.099 37.6058 7.099 35.4026 7.3599C33.7791 7.56283 31.6339 8.02667 28.7929 9.07031C28.6032 9.13927 28.3908 9.20253 28.1687 9.26868C27.2703 9.53623 26.2135 9.85098 25.8649 10.7807C25.488 11.7084 25.6329 12.2302 26.0388 12.4621C26.8759 12.9482 28.845 12.3023 29.9075 11.9538C29.9856 11.9282 30.0589 11.9042 30.1264 11.8823L30.2134 11.9693C30.068 12.7633 29.8579 13.6219 29.6414 14.507C29.2965 15.9165 28.9353 17.393 28.7929 18.782C28.3 20.2894 27.3144 23.9712 28.1261 25.4207C29.7785 26.4353 30.7932 23.5363 30.6772 23.4493C31.112 22.1738 32.4456 16.6077 32.5905 15.1002C32.6195 14.7234 32.6485 14.4335 32.7065 14.0276C32.7636 13.6567 32.7996 13.2859 32.8352 12.9184C32.872 12.5391 32.9085 12.1635 32.9674 11.7954C32.9964 11.5924 33.1124 11.4475 33.2863 11.3025C34.011 10.6938 35.7215 10.6938 36.0114 10.6938C36.0797 10.6767 36.1833 10.6571 36.3081 10.6334C36.6067 10.5769 37.0263 10.4975 37.3739 10.3749C37.6058 10.2879 37.6058 10.6068 37.5478 10.9837C37.4964 11.3178 37.3994 11.6976 37.3579 11.8602C37.3526 11.8809 37.3482 11.8982 37.3449 11.9113C37.3159 12.0708 37.2797 12.2157 37.2434 12.3607C37.2072 12.5056 37.171 12.6506 37.142 12.81C37.0751 13.0441 36.9889 13.4228 36.8445 14.0574C36.7386 14.5231 36.6013 15.1266 36.4172 15.9119C35.4316 20.4054 34.6778 24.377 35.5185 26.5513C35.7215 26.8412 36.3882 27.1601 36.5912 27.0731C37.113 26.9861 37.4609 26.7542 37.7218 26.4643C38.1856 25.9425 38.3306 25.1887 38.3595 24.435ZM49.6077 14.4045H49.8106C50.0715 14.4045 50.1874 14.3175 50.2454 14.2305C50.2454 14.1146 50.1005 13.8537 49.8975 13.5058C49.4917 12.868 49.1728 12.4621 48.9119 12.2882C48.651 12.1143 48.2451 12.0273 47.7523 12.0273C46.6217 12.0273 45.3461 12.1143 43.9256 12.2882C42.4761 12.4621 41.8093 12.81 41.9253 13.3318C42.0123 13.8537 42.1572 14.2885 42.3022 14.5784C42.4471 14.8683 42.708 15.0133 43.0559 15.0133L42.1282 17.3035C41.7514 18.2022 41.3745 19.5647 40.9396 21.391C40.5048 23.2174 40.3888 24.522 40.5338 25.3047C40.6787 26.0584 41.0266 26.5803 41.5774 26.8122C42.1282 27.0441 42.6501 27.1601 43.1719 27.1601C43.9546 27.1601 44.8533 27.0731 45.8679 26.8991C46.8826 26.7252 47.6363 26.5513 48.1581 26.3483C48.3901 26.2614 48.535 26.1164 48.622 25.9135C48.68 25.7395 48.651 25.3337 48.535 24.7539C48.477 24.435 48.3321 24.29 48.1002 24.29C47.7813 24.29 47.4334 24.348 47.0275 24.493L47.0274 24.493C46.6216 24.609 46.2158 24.7249 45.81 24.8119C45.4041 24.8988 44.7663 24.9278 43.8676 24.9278C43.6357 24.9278 43.4908 24.8988 43.4038 24.8409C43.3458 24.7829 43.2878 24.6959 43.2588 24.551C43.1719 24.2031 43.2588 23.5653 43.4618 22.6666C43.6647 21.7679 43.8966 21.0142 44.0996 20.4344L45.8969 20.3764C46.6507 20.3764 47.1725 20.3474 47.4334 20.3184C47.6943 20.2894 47.8683 20.2025 47.9262 20.1155C47.9842 19.9995 48.0132 19.8256 47.9842 19.5647V19.0139C47.9842 19.0019 47.9892 18.9899 47.995 18.9758C48.0033 18.9559 48.0132 18.9319 48.0132 18.8979V18.753C47.9552 18.4051 47.4914 18.2311 46.6507 18.2311C46.0129 18.2311 45.2881 18.2891 44.5054 18.3761C44.7083 17.6513 45.0272 16.7527 45.4331 15.738C45.636 15.2162 45.81 14.8683 45.9259 14.6944C46.0419 14.4914 46.2158 14.4045 46.4477 14.3465C46.6507 14.3175 47.0855 14.2885 47.7233 14.2885C47.8972 14.2885 48.4481 14.3175 49.4047 14.4045H49.6077ZM55.9275 19.9705C56.2753 18.4341 56.7682 16.6367 57.4059 14.5204C57.6196 14.467 58.03 14.4136 58.6145 14.3375C58.6646 14.331 58.7159 14.3244 58.7685 14.3175C59.4642 14.2595 59.9571 14.2015 60.276 14.1146C60.5948 14.0276 60.7108 13.8247 60.6528 13.5058C60.6238 13.3028 60.4789 13.0419 60.276 12.781C60.044 12.5201 59.7541 12.2882 59.3773 12.1143C59.0004 11.9113 58.5945 11.8244 58.1307 11.8244C58.0534 11.8244 57.9503 11.8372 57.8129 11.8544C57.7442 11.863 57.6669 11.8727 57.5799 11.8823C57.319 11.9113 56.8841 11.9403 56.3333 11.9693C55.7535 11.9983 55.3477 12.0273 55.0578 12.0563C53.4633 12.1722 52.3327 12.3172 51.6949 12.4621C51.0571 12.6071 50.7672 12.868 50.8252 13.2159C51.0571 14.2885 51.492 14.8103 52.1588 14.8103C52.2747 14.8103 53.0285 14.7523 54.42 14.6364C54.275 15.2452 54.0431 16.1729 53.7242 17.4194C53.6205 17.8655 53.5168 18.3004 53.4157 18.7241C53.2343 19.4847 53.0614 20.2094 52.9125 20.8982C52.6885 21.844 52.5286 22.7044 52.3778 23.5159C52.3529 23.6496 52.3283 23.782 52.3037 23.9132C52.1298 24.8409 52.0718 25.4207 52.1298 25.6816C52.1878 25.9135 52.3617 26.1164 52.6516 26.3483C52.9415 26.5513 53.2894 26.7252 53.6373 26.8702C53.9851 27.0151 54.246 27.0731 54.391 27.0731C54.5939 27.0731 54.7099 26.9281 54.7679 26.6672C54.8113 26.472 54.8871 25.9682 55.0076 25.168C55.0481 24.899 55.0937 24.5965 55.1447 24.2611C55.3187 22.9275 55.5796 21.507 55.9275 19.9705ZM67.9003 20.6663C68.799 19.8256 69.5527 18.8979 70.1615 17.8253C70.7993 16.7816 71.0312 15.9119 70.8863 15.3032C70.7993 14.7813 70.5094 14.2595 70.0746 13.7377C69.6107 13.2159 69.0309 12.781 68.2482 12.4332C67.4655 12.0853 66.5958 11.9113 65.6101 11.9113C65.0303 11.9113 64.4505 11.9693 63.8127 12.0853C63.2039 12.2302 62.6821 12.4042 62.2473 12.6361C61.8124 12.868 61.6385 13.1289 61.6965 13.4478C61.8994 14.4045 62.2473 15.0133 62.7691 15.2452C62.7113 15.4832 62.6551 15.7149 62.6004 15.9402C62.189 17.6354 61.8654 18.9692 61.6095 19.9416C61.4499 20.6155 61.2686 21.2894 61.0854 21.97C60.9693 22.4019 60.8523 22.8365 60.7398 23.2754C60.4499 24.377 60.276 25.1018 60.218 25.3627C60.16 25.6236 60.16 25.8555 60.189 26.0294C60.247 26.2904 60.3629 26.4643 60.5369 26.5513C60.7108 26.6382 61.0007 26.7252 61.4066 26.8122L61.4067 26.8122C61.6096 26.8702 61.8125 26.9281 62.0443 26.9861C62.2763 27.0731 62.4212 27.1021 62.5082 27.1021C62.7401 27.1021 62.943 26.9571 63.059 26.6962C63.1749 26.4353 63.2619 26.0005 63.3489 25.4496C63.3838 25.2168 63.4188 24.9559 63.4574 24.6669C63.5151 24.2363 63.581 23.7435 63.6678 23.1884C63.7837 22.2607 63.9867 21.3621 64.1896 20.4634C64.8564 21.42 65.3782 21.9129 65.813 21.9129C66.3349 21.9129 67.0306 21.507 67.9003 20.6663ZM78.5396 25.5946C79.5543 24.6089 80.308 23.2754 80.8008 21.652C81.2647 20.0285 81.3517 18.3471 81.0038 16.6077C80.8588 15.854 80.6559 15.1872 80.395 14.6074C80.1341 14.0276 79.8732 13.5927 79.6123 13.2739C79.3513 12.955 79.1774 12.81 79.0325 12.81C78.9745 12.81 78.8005 12.868 78.5686 12.984C78.3077 13.0999 78.1338 13.2159 78.0468 13.2739C77.7569 12.926 77.409 12.6071 77.0322 12.3172C76.6553 12.0273 76.3364 11.8823 76.1045 11.8823C75.7566 11.8823 75.2348 12.1722 74.568 12.81C73.9012 13.4188 73.2635 14.2595 72.6547 15.3321C72.0459 16.4048 71.582 17.6224 71.2921 18.9849C70.9733 20.3764 70.9733 21.7679 71.2632 23.2174C71.4371 24.0871 71.756 24.8119 72.2198 25.3917C72.6837 25.9715 73.2055 26.3773 73.7563 26.6672C74.3361 26.9281 74.8579 27.0731 75.3217 27.0731C76.4524 27.0731 77.525 26.5803 78.5396 25.5946ZM89.4399 19.3038C90.3096 18.8689 90.9763 18.2891 91.4692 17.5064C91.962 16.7237 92.1359 15.9119 92.02 15.0712C91.846 14.1146 91.2952 13.3608 90.3965 12.752C89.4978 12.1432 88.3962 11.8534 87.0917 11.8534C86.5119 11.8534 85.7581 11.9403 84.7725 12.1143C83.8448 12.2882 83.149 12.4331 82.6852 12.6071C82.2214 12.781 82.0474 13.0419 82.1054 13.3898C82.1924 13.7667 82.3663 14.1436 82.6562 14.5204C82.9461 14.8973 83.323 15.1292 83.8158 15.2162C83.6129 16.9556 83.381 18.4341 83.0911 19.6517C82.8012 20.8692 82.5113 21.7969 82.2503 22.4927C81.9894 23.1594 81.7575 23.7682 81.5836 24.2611C81.4096 24.7539 81.3806 25.1597 81.4386 25.5366C81.4386 25.6526 81.5836 25.8265 81.8735 26.0874C82.1634 26.3483 82.4533 26.5803 82.7722 26.7832C83.0911 26.9861 83.323 27.1021 83.4679 27.1021C83.6709 27.1021 83.8158 26.9861 83.9318 26.8122C84.0187 26.6382 84.1637 26.2904 84.2796 25.7975C85.0334 26.6672 85.7581 27.1021 86.4829 27.1021C87.1497 27.1021 87.9034 26.7832 88.6861 26.1454C89.4688 25.5076 90.1066 24.7539 90.5995 23.8552C91.0923 22.9565 91.2662 22.1738 91.1213 21.478C91.0343 21.1301 90.8604 20.7243 90.5995 20.3474C90.3096 19.9415 89.9327 19.5937 89.4399 19.3038ZM103.007 19.6806C103.21 18.3761 103.529 17.0136 103.993 15.622C104.949 14.8103 105.384 14.2015 105.239 13.7667C105.181 13.5058 105.007 13.2159 104.718 12.839C104.428 12.4621 104.138 12.2882 103.877 12.2882C103.616 12.2882 103.094 12.6651 102.282 13.4478C101.5 14.2015 100.601 15.1292 99.6443 16.2018C98.6877 17.2745 97.818 18.2601 97.0062 19.2168C96.2235 20.1445 95.7307 20.7533 95.5567 20.9852L95.5568 20.9849C95.8467 19.6805 96.0786 18.6369 96.3105 17.7963C96.5424 16.9556 96.7743 16.1729 97.0062 15.3901C97.2382 14.6364 97.3831 14.1146 97.4411 13.8826C97.4991 13.6507 97.5281 13.4478 97.4991 13.3028C97.4991 13.1579 97.3541 12.984 97.0932 12.752C96.8613 12.5201 96.5714 12.3172 96.2815 12.1143C95.9916 11.9113 95.7887 11.8244 95.6727 11.8244C95.4408 11.8244 95.2668 12.0273 95.0929 12.4332C94.919 12.839 94.745 13.4188 94.5711 14.2015C94.459 14.7059 94.371 15.0538 94.3226 15.2452C94.2959 15.3508 94.2812 15.4088 94.2812 15.4191C93.2665 19.1878 92.6577 21.7389 92.4258 23.0435C92.1939 24.348 92.0779 25.1018 92.1359 25.3627C92.1649 25.5656 92.4258 25.8265 92.8897 26.1454C93.3535 26.4643 93.7594 26.6382 94.0493 26.6382C94.2522 26.6382 94.3971 26.5513 94.5421 26.4353C94.5596 26.4134 94.5792 26.3894 94.6005 26.3633C94.7202 26.2168 94.8961 26.0014 95.0929 25.6816C95.3248 25.3337 95.5278 25.0438 95.6727 24.8409C95.7574 24.7421 95.8695 24.5952 96.0158 24.4036C96.1701 24.2016 96.3623 23.9498 96.6004 23.6523L96.6022 23.65C97.0654 23.0709 97.5286 22.4919 97.9629 21.9419C98.2402 21.6126 98.4967 21.2938 98.7449 20.9853C98.9119 20.7776 99.0752 20.5747 99.2385 20.3764C99.4857 20.0762 99.7545 19.7652 100.038 19.4369C100.22 19.2263 100.408 19.0085 100.601 18.782L99.9922 21.391C99.9462 21.6082 99.9031 21.8104 99.8633 21.997C99.728 22.6325 99.6312 23.0869 99.5863 23.3334C99.5328 23.6279 99.504 23.9471 99.4771 24.2454C99.4748 24.2701 99.4726 24.2946 99.4704 24.319C99.4414 24.6669 99.4414 24.9568 99.4994 25.2177C99.5574 25.5656 99.7603 25.8555 100.05 26.1454C100.34 26.4063 100.688 26.6382 101.036 26.8122C101.384 26.9861 101.645 27.0731 101.848 27.0731C102.108 27.0731 102.282 26.8412 102.34 26.4063C102.426 25.9802 102.483 25.081 102.567 23.7632L102.572 23.6813C102.659 22.3187 102.804 20.9852 103.007 19.6806ZM114.806 15.8821C114.951 15.5055 115.096 15.129 115.241 14.7813C115.386 14.4335 115.473 14.2305 115.531 14.1436C115.502 13.9986 115.357 13.7957 115.096 13.5638C114.835 13.3318 114.574 13.1289 114.284 12.926C113.994 12.723 113.82 12.6361 113.733 12.6361C113.502 12.6361 113.241 13.0129 112.922 13.7087C112.632 14.4335 112.342 15.1872 112.081 16.0279C111.82 16.8396 111.646 17.4484 111.559 17.8253L110.834 18.0282C110.646 18.0987 110.382 18.1502 110.057 18.2134C109.981 18.2282 109.902 18.2437 109.82 18.2601C109.385 18.3471 109.066 18.3761 108.863 18.3761C108.573 18.3761 108.399 18.2022 108.341 17.8543C108.312 17.6224 108.37 17.2165 108.515 16.6367C108.66 16.0569 108.834 15.5351 109.008 15.0712C109.065 14.9454 109.118 14.8242 109.168 14.7092C109.245 14.5327 109.315 14.371 109.385 14.2305C109.413 14.1562 109.441 14.0848 109.467 14.0183C109.522 13.8774 109.568 13.7585 109.588 13.6797C109.617 13.5638 109.646 13.4478 109.617 13.3318C109.588 13.2449 109.443 13.0709 109.211 12.81C108.979 12.5491 108.718 12.3172 108.457 12.1143C108.196 11.9113 107.993 11.7954 107.877 11.7954C107.675 11.7954 107.385 12.2592 106.979 13.1289C106.573 14.0276 106.225 14.9553 105.935 15.9989C105.645 17.0426 105.558 17.7673 105.645 18.2311C105.732 18.724 106.022 19.2458 106.486 19.7966C106.95 20.3474 107.414 20.6373 107.848 20.6373C108.08 20.6373 108.602 20.5503 109.356 20.3474C110.11 20.1735 110.689 19.9995 111.095 19.8546C111.029 20.0315 110.946 20.3938 110.82 20.9417C110.781 21.1122 110.738 21.3006 110.69 21.507C110.535 22.171 110.413 22.8182 110.3 23.4226C110.265 23.6098 110.231 23.7929 110.197 23.9712C110.052 24.7539 109.994 25.2467 110.052 25.4786C110.11 25.8265 110.429 26.1164 110.979 26.3773C111.269 26.4933 111.53 26.6382 111.791 26.8122C112.052 26.9861 112.226 27.0731 112.284 27.0731C112.516 27.0731 112.661 26.9281 112.748 26.6382C112.835 26.3483 112.893 25.8555 112.922 25.2177C112.941 24.7811 112.96 24.4812 112.971 24.31C112.976 24.2197 112.98 24.1651 112.98 24.1451C113.154 22.6956 113.328 21.536 113.473 20.6953C113.617 19.8256 113.791 19.1008 113.965 18.4631C114.139 17.8543 114.429 16.9846 114.806 15.883L114.806 15.8821ZM89.0322 14.4735C88.7133 14.2706 88.3074 14.1836 87.8146 14.1836C87.1768 14.1836 86.597 14.2706 86.0752 14.4155C86.3361 14.6474 86.4811 14.8504 86.539 15.0823C86.626 15.4881 86.481 16.6188 86.1622 18.4741C86.771 18.2712 87.3508 17.9523 87.9016 17.5754C88.4524 17.1986 88.8872 16.7927 89.2351 16.3578C89.554 15.923 89.6699 15.5461 89.612 15.1982C89.525 14.9373 89.3511 14.6764 89.0322 14.4735ZM86.9449 20.2998C86.568 20.2998 86.1621 20.3578 85.7273 20.5027C85.6113 21.0535 85.4664 21.5754 85.2924 22.1262C85.1185 22.677 84.8866 23.4597 84.5967 24.4454C85.2924 24.4454 85.9882 24.3004 86.626 23.9525C87.2638 23.6336 87.7566 23.2278 88.1335 22.735C88.4813 22.2421 88.6263 21.7493 88.5393 21.2565C88.3944 20.6477 87.8436 20.2998 86.9449 20.2998ZM66.2165 14.7048C66.3325 14.6758 66.4774 14.6758 66.7093 14.6758C67.637 14.6758 68.1298 14.9657 68.2458 15.5455C68.3038 15.9223 68.1298 16.3862 67.724 16.937C67.2891 17.4588 66.7383 17.9806 66.0715 18.4735C65.4048 18.9373 64.767 19.2852 64.1582 19.4591C64.2452 18.8503 64.4191 17.9516 64.651 16.792C64.796 16.0963 64.9119 15.6325 64.9989 15.4005C65.0569 15.1686 65.1729 14.9947 65.3468 14.9077C65.5207 14.7917 65.8106 14.7338 66.2165 14.7048ZM77.3202 14.6465C76.9723 14.6465 76.5375 14.9074 76.0736 15.4582C75.6098 16.009 75.175 16.7048 74.7691 17.6035C74.3922 18.5021 74.1023 19.4588 73.9284 20.5314C73.7544 21.6041 73.7834 22.6187 73.9574 23.6044C74.0443 24.0102 74.1893 24.3581 74.3632 24.59C74.5372 24.822 74.7111 24.9669 74.8851 24.9669C75.2619 24.9669 75.6968 24.706 76.1896 24.1552C76.6534 23.6334 77.0883 22.9086 77.4941 22.0389C77.9 21.1692 78.1609 20.2126 78.3349 19.1979C78.5088 18.1833 78.5088 17.2556 78.3349 16.3859C78.1029 15.2263 77.7551 14.6465 77.3202 14.6465Z" fill="#ED1C24">
</path>
</g>
<defs>
<rect width="133.231" height="38.1532" fill="white" transform="translate(0.43457 0.150391)">
</rect>
</defs>
</svg>